<svg width="30" height="30" viewBox="0 0 30 30" fill="none" xmlns="http://www.w3.org/2000/svg">
<path d="M18.3333 26.6667H26.6667V3.33333H3.33333V26.6667H15V18.3333H11.6667V15H15V12.2433C15 10.015 15.2333 9.20667 15.6667 8.39167C16.0935 7.58531 16.7533 6.92615 17.56 6.5C18.1967 6.15833 18.9883 5.95333 20.3717 5.865C20.92 5.83 21.63 5.87333 22.5017 5.99833V9.165H21.6667C20.1383 9.165 19.5067 9.23667 19.13 9.43833C18.9052 9.55393 18.7223 9.73691 18.6067 9.96167C18.4067 10.3383 18.3333 10.7117 18.3333 12.2417V15H22.5L21.6667 18.3333H18.3333V26.6667ZM1.66667 0H28.3333C28.7754 0 29.1993 0.175595 29.5118 0.488155C29.8244 0.800716 30 1.22464 30 1.66667V28.3333C30 28.7754 29.8244 29.1993 29.5118 29.5118C29.1993 29.8244 28.7754 30 28.3333 30H1.66667C1.22464 30 0.800716 29.8244 0.488155 29.5118C0.175595 29.1993 0 28.7754 0 28.3333V1.66667C0 1.22464 0.175595 0.800716 0.488155 0.488155C0.800716 0.175595 1.22464 0 1.66667 0Z" fill="#B8860B"/>
</svg>
