<svg width="30" height="30" viewBox="0 0 30 30" fill="none" xmlns="http://www.w3.org/2000/svg">
<g clip-path="url(#clip0_580_214)">
<path d="M15.0016 29.9968C12.5349 29.9973 10.1061 29.3894 7.93043 28.227C5.75477 27.0645 3.8994 25.3834 2.52871 23.3326C1.15802 21.2817 0.314309 18.9245 0.0723382 16.4696C-0.169633 14.0148 0.197603 11.5382 1.14151 9.25919C2.08542 6.9802 3.57685 4.9692 5.48368 3.40434C7.39052 1.83949 9.65388 0.769107 12.0732 0.288016C14.4926 -0.193075 16.9933 -0.0700176 19.3537 0.646286C21.7142 1.36259 23.8615 2.65002 25.6055 4.39453C25.7733 4.56174 25.9064 4.76043 25.9972 4.9792C26.0881 5.19796 26.1348 5.43252 26.1348 5.66939C26.1348 5.90628 26.0881 6.14082 25.9972 6.35959C25.9064 6.57836 25.7733 6.77705 25.6055 6.94426C25.264 7.27594 24.8067 7.46147 24.3306 7.46147C23.8546 7.46147 23.3972 7.27594 23.0557 6.94426C22.0025 5.88006 20.7478 5.03623 19.365 4.46199C17.9822 3.88775 16.4989 3.5946 15.0016 3.59962C12.8244 3.60114 10.6931 4.22618 8.85996 5.40078C7.02678 6.57539 5.56834 8.25044 4.65713 10.2278C3.74593 12.2052 3.42008 14.4021 3.71814 16.5589C4.0162 18.7156 4.92568 20.7418 6.33903 22.3979C7.75238 24.0541 9.61045 25.2708 11.6935 25.9042C13.7766 26.5375 15.9974 26.5611 18.0935 25.9721C20.1895 25.3831 22.073 24.2061 23.5211 22.5803C24.9693 20.9546 25.9216 18.9481 26.2654 16.7982H15.0016C14.5243 16.7982 14.0665 16.6086 13.7289 16.2711C13.3914 15.9335 13.2018 15.4757 13.2018 14.9984C13.2018 14.5211 13.3914 14.0633 13.7289 13.7257C14.0665 13.3882 14.5243 13.1986 15.0016 13.1986H28.2002C28.6775 13.1986 29.1353 13.3882 29.4728 13.7257C29.8104 14.0633 30 14.5211 30 14.9984C29.9921 18.9738 28.4093 22.7841 25.5983 25.5951C22.7873 28.4061 18.977 29.9889 15.0016 29.9968Z" fill="#B8860B"/>
</g>
<defs>
<clipPath id="clip0_580_214">
<rect width="30" height="30" fill="white"/>
</clipPath>
</defs>
</svg>
